<svg version="1.1" xmlns="http://www.w3.org/2000/svg" xmlns:xlink="http://www.w3.org/1999/xlink" width="850" height="160"><style xmlns="http://www.w3.org/1999/xhtml"></style><defs/><g transform="translate(0,0)"><g><rect fill="#FFFFFF" stroke="none" x="0" y="0" width="850" height="160"/></g><g transform="matrix(1,0,0,1,175,45)"><g transform="translate(0,0)"><g transform="translate(-249.71428571428572,-72.28571428571428) translate(74.71428571428572,27.285714285714278) matrix(1,0,0,1,0,0)"><g><g><path fill="none" stroke="#7d7d7d" stroke-dasharray="8,8" d="M 190 60 L 190 100" stroke-miterlimit="10" stroke-width="2"/></g></g></g></g></g><g transform="matrix(1,0,0,1,175,45)"><g transform="translate(0,0)"><g transform="translate(-249.71428571428572,-72.28571428571428) translate(74.71428571428572,27.285714285714278) matrix(1,0,0,1,0,0)"><g><g><path fill="none" stroke="#7d7d7d" stroke-dasharray="8,8" d="M 190 60 L 190 100" stroke-miterlimit="10" stroke-width="2"/></g></g></g></g></g><g transform="matrix(1,0,0,1,645,45)"><g transform="translate(0,0)"><g transform="translate(-723.4285714285714,-72.85714285714286) translate(78.42857142857144,27.85714285714286) matrix(1,0,0,1,0,0)"><g><g><path fill="none" stroke="#7d7d7d" stroke-dasharray="8,8" d="M 660 60 L 840 100" stroke-miterlimit="10" stroke-width="2"/></g></g></g></g></g><g transform="matrix(1,0,0,1,645,45)"><g transform="translate(0,0)"><g transform="translate(-723.4285714285714,-72.85714285714286) translate(78.42857142857144,27.85714285714286) matrix(1,0,0,1,0,0)"><g><g><path fill="none" stroke="#7d7d7d" stroke-dasharray="8,8" d="M 660 60 L 840 100" stroke-miterlimit="10" stroke-width="2"/></g></g></g></g></g><g transform="translate(0,0) matrix(-1,1.2246467991473532e-16,-1.2246467991473532e-16,-1,660,60)"><g><g transform="translate(0,0) scale(4.7,0.3)"><g><g transform="scale(0.2127659574468085,3.3333333333333335)"><path fill="#b6d7a8" stroke="none" stroke-dasharray="1.7976931348623157e+308" d="M 0 0 L 470 30 L 0 30 L 0 0 Z"/><path fill="none" stroke="#b6d7a8" stroke-dasharray="1.7976931348623157e+308" d="M 0 0 L 470 30 L 0 30 L 0 0 Z" stroke-miterlimit="10" stroke-width="2"/></g></g></g></g></g><g transform="translate(0,0) matrix(1,0,0,1,10,10)"><g><g transform="translate(0,0) scale(6.5,0.2)"><g><path fill="#b6d7a8" stroke="none" stroke-dasharray="1.7976931348623157e+308" d="M 0 0 L 100 0 Q 100 0 100 0 L 100 100 Q 100 100 100 100 L 0 100 Q 0 100 0 100 L 0 0 Q 0 0 0 0 Z"/><g transform="scale(0.15384615384615385,5)"><path fill="none" stroke="none" stroke-dasharray="1.7976931348623157e+308" d="M 0 0 L 650 0 Q 650 0 650 0 L 650 20 Q 650 20 650 20 L 0 20 Q 0 20 0 20 L 0 0 Q 0 0 0 0 Z"/><path fill="none" stroke="#333333" stroke-dasharray="1.7976931348623157e+308" d="M 0 0 L 650 0 Q 650 0 650 0 L 650 20 Q 650 20 650 20 L 0 20 Q 0 20 0 20 L 0 0 Q 0 0 0 0 Z" stroke-miterlimit="10" stroke-width="2"/></g></g></g></g></g><g transform="matrix(1,0,0,1,31,11)"><g><g><rect fill="rgb(0,0,0)" stroke="none" x="0" y="0" width="608" height="19" fill-opacity="0"/></g></g><g><g><rect fill="rgb(0,0,0)" stroke="none" x="0" y="0" width="608" height="19" fill-opacity="0"/></g></g><g><g><rect fill="rgb(0,0,0)" stroke="none" x="256.8500061035156" y="0.75" width="94" height="17" fill-opacity="0"/></g></g><g><g><rect fill="rgb(0,0,0)" stroke="none" x="256.8500061035156" y="0.75" width="94" height="17" fill-opacity="0"/></g></g><g><g><rect fill="rgb(0,0,0)" stroke="none" x="256.8500061035156" y="0.75" width="94" height="17" fill-opacity="0"/></g><text fill="rgb(0, 0, 0)" stroke="none" font-family="&quot;Arial&quot;" font-size="16px" font-style="normal" font-weight="700" text-decoration="" line-height="18.5px" x="256.8500061035156" y="14.75">Layer</text><text fill="rgb(0, 0, 0)" stroke="none" font-family="&quot;Arial&quot;" font-size="16px" font-style="normal" font-weight="700" text-decoration="" line-height="18.5px" x="304" y="14.75">1</text><text fill="rgb(0, 0, 0)" stroke="none" font-family="&quot;Arial&quot;" font-size="16px" font-style="normal" font-weight="700" text-decoration="" line-height="18.5px" x="317.3500061035156" y="14.75">PDU</text></g><g><g/></g></g><g transform="translate(0,0) matrix(1,0,0,1,10,30)"><g><g transform="translate(0,0) scale(0.2,0.3)"><g><path fill="#b6d7a8" stroke="none" stroke-dasharray="1.7976931348623157e+308" d="M 0 0 L 100 0 Q 100 0 100 0 L 100 100 Q 100 100 100 100 L 0 100 Q 0 100 0 100 L 0 0 Q 0 0 0 0 Z"/><g transform="scale(5,3.3333333333333335)"><path fill="none" stroke="none" stroke-dasharray="1.7976931348623157e+308" d="M 0 0 L 20 0 Q 20 0 20 0 L 20 30 Q 20 30 20 30 L 0 30 Q 0 30 0 30 L 0 0 Q 0 0 0 0 Z"/><path fill="none" stroke="#333333" stroke-dasharray="1.7976931348623157e+308" d="M 0 0 L 20 0 Q 20 0 20 0 L 20 30 Q 20 30 20 30 L 0 30 Q 0 30 0 30 L 0 0 Q 0 0 0 0 Z" stroke-miterlimit="10" stroke-width="2"/></g></g></g></g></g><g transform="translate(0,0) matrix(1,0,0,1,190,100)"><g><g transform="translate(0,0) scale(6.5,0.2)"><g><path fill="#c9daf8" stroke="none" stroke-dasharray="1.7976931348623157e+308" d="M 0 0 L 100 0 Q 100 0 100 0 L 100 100 Q 100 100 100 100 L 0 100 Q 0 100 0 100 L 0 0 Q 0 0 0 0 Z"/><g transform="scale(0.15384615384615385,5)"><path fill="none" stroke="none" stroke-dasharray="1.7976931348623157e+308" d="M 0 0 L 650 0 Q 650 0 650 0 L 650 20 Q 650 20 650 20 L 0 20 Q 0 20 0 20 L 0 0 Q 0 0 0 0 Z"/><path fill="none" stroke="#333333" stroke-dasharray="1.7976931348623157e+308" d="M 0 0 L 650 0 Q 650 0 650 0 L 650 20 Q 650 20 650 20 L 0 20 Q 0 20 0 20 L 0 0 Q 0 0 0 0 Z" stroke-miterlimit="10" stroke-width="2"/></g></g></g></g></g><g transform="matrix(1,0,0,1,211,101)"><g><g><rect fill="rgb(0,0,0)" stroke="none" x="0" y="0" width="608" height="19" fill-opacity="0"/></g></g><g><g><rect fill="rgb(0,0,0)" stroke="none" x="0" y="0" width="608" height="19" fill-opacity="0"/></g></g><g><g><rect fill="rgb(0,0,0)" stroke="none" x="256.8500061035156" y="0.75" width="94" height="17" fill-opacity="0"/></g></g><g><g><rect fill="rgb(0,0,0)" stroke="none" x="256.8500061035156" y="0.75" width="94" height="17" fill-opacity="0"/></g><text fill="rgb(0, 0, 0)" stroke="none" font-family="&quot;Arial&quot;" font-size="16px" font-style="normal" font-weight="700" text-decoration="" line-height="18.5px" x="256.8500061035156" y="14.75">Layer</text><text fill="rgb(0, 0, 0)" stroke="none" font-family="&quot;Arial&quot;" font-size="16px" font-style="normal" font-weight="700" text-decoration="" line-height="18.5px" x="304" y="14.75">2</text><text fill="rgb(0, 0, 0)" stroke="none" font-family="&quot;Arial&quot;" font-size="16px" font-style="normal" font-weight="700" text-decoration="" line-height="18.5px" x="317.3500061035156" y="14.75">PDU</text></g><g><g/></g></g><g transform="translate(0,0) matrix(1,0,0,1,190,120)"><g><g transform="translate(0,0) scale(1.1,0.3)"><g><path fill="#c9daf8" stroke="none" stroke-dasharray="1.7976931348623157e+308" d="M 0 0 L 100 0 Q 100 0 100 0 L 100 100 Q 100 100 100 100 L 0 100 Q 0 100 0 100 L 0 0 Q 0 0 0 0 Z"/><g transform="scale(0.9090909090909091,3.3333333333333335)"><path fill="none" stroke="none" stroke-dasharray="1.7976931348623157e+308" d="M 0 0 L 110.00000000000001 0 Q 110.00000000000001 0 110.00000000000001 0 L 110.00000000000001 30 Q 110.00000000000001 30 110.00000000000001 30 L 0 30 Q 0 30 0 30 L 0 0 Q 0 0 0 0 Z"/><path fill="none" stroke="#333333" stroke-dasharray="1.7976931348623157e+308" d="M 0 0 L 110.00000000000001 0 Q 110.00000000000001 0 110.00000000000001 0 L 110.00000000000001 30 Q 110.00000000000001 30 110.00000000000001 30 L 0 30 Q 0 30 0 30 L 0 0 Q 0 0 0 0 Z" stroke-miterlimit="10" stroke-width="2"/></g></g></g></g></g><g transform="translate(0,0) matrix(1,0,0,1,190,30)"><g><g transform="translate(0,0) scale(4.7,0.3)"><g><g transform="scale(0.2127659574468085,3.3333333333333335)"><path fill="#c9daf8" stroke="none" stroke-dasharray="1.7976931348623157e+308" d="M 0 0 L 470 30 L 0 30 L 0 0 Z"/><path fill="none" stroke="#c9daf8" stroke-dasharray="1.7976931348623157e+308" d="M 0 0 L 470 30 L 0 30 L 0 0 Z" stroke-miterlimit="10" stroke-width="2"/></g></g></g></g></g><g transform="matrix(1,0,0,1,200,36)"><g><g><rect fill="rgb(0,0,0)" stroke="none" x="0" y="0" width="450" height="19" fill-opacity="0"/></g></g><g><g><rect fill="rgb(0,0,0)" stroke="none" x="0" y="0" width="450" height="19" fill-opacity="0"/></g></g><g><g><rect fill="rgb(0,0,0)" stroke="none" x="167.1666717529297" y="0.75" width="116" height="17" fill-opacity="0"/></g></g><g><g><rect fill="rgb(0,0,0)" stroke="none" x="167.1666717529297" y="0.75" width="116" height="17" fill-opacity="0"/></g><text fill="rgb(0, 0, 0)" stroke="none" font-family="&quot;Arial&quot;" font-size="16px" font-style="normal" font-weight="normal" text-decoration="" line-height="18.5px" x="167.1666717529297" y="14.75">Layer</text><text fill="rgb(0, 0, 0)" stroke="none" font-family="&quot;Arial&quot;" font-size="16px" font-style="normal" font-weight="normal" text-decoration="" line-height="18.5px" x="211.64999389648438" y="14.75">1</text><text fill="rgb(0, 0, 0)" stroke="none" font-family="&quot;Arial&quot;" font-size="16px" font-style="normal" font-weight="normal" text-decoration="" line-height="18.5px" x="225" y="14.75">Payload</text></g><g><g/></g></g><g transform="translate(0,0) matrix(1,0,0,1,190,30)"><g><g transform="translate(0,0) scale(4.7,0.3)"><g><path fill="rgb(255,255,255)" stroke="none" stroke-dasharray="1.7976931348623157e+308" d="M 0 0 L 100 0 Q 100 0 100 0 L 100 100 Q 100 100 100 100 L 0 100 Q 0 100 0 100 L 0 0 Q 0 0 0 0 Z" fill-opacity="0.008"/><g transform="scale(0.2127659574468085,3.3333333333333335)"><path fill="none" stroke="none" stroke-dasharray="1.7976931348623157e+308" d="M 0 0 L 470 0 Q 470 0 470 0 L 470 30 Q 470 30 470 30 L 0 30 Q 0 30 0 30 L 0 0 Q 0 0 0 0 Z"/><path fill="none" stroke="#333333" stroke-dasharray="1.7976931348623157e+308" d="M 0 0 L 470 0 Q 470 0 470 0 L 470 30 Q 470 30 470 30 L 0 30 Q 0 30 0 30 L 0 0 Q 0 0 0 0 Z" stroke-miterlimit="10" stroke-width="2"/></g></g></g></g></g><g transform="translate(0,0) matrix(-1,1.2246467991473532e-16,-1.2246467991473532e-16,-1,840,150)"><g><g transform="translate(0,0) scale(4.7,0.3)"><g><g transform="scale(0.2127659574468085,3.3333333333333335)"><path fill="#c9daf8" stroke="none" stroke-dasharray="1.7976931348623157e+308" d="M 0 0 L 470 30 L 0 30 L 0 0 Z"/><path fill="none" stroke="#c9daf8" stroke-dasharray="1.7976931348623157e+308" d="M 0 0 L 470 30 L 0 30 L 0 0 Z" stroke-miterlimit="10" stroke-width="2"/></g></g></g></g></g><g transform="translate(0,0) matrix(1,0,0,1,370,120)"><g><g transform="translate(0,0) scale(4.7,0.3)"><g><g transform="scale(0.2127659574468085,3.3333333333333335)"><path fill="#fff2cc" stroke="none" stroke-dasharray="1.7976931348623157e+308" d="M 0 0 L 470 30 L 0 30 L 0 0 Z"/><path fill="none" stroke="#fff2cc" stroke-dasharray="1.7976931348623157e+308" d="M 0 0 L 470 30 L 0 30 L 0 0 Z" stroke-miterlimit="10" stroke-width="2"/></g></g></g></g></g><g transform="matrix(1,0,0,1,380,126)"><g><g><rect fill="rgb(0,0,0)" stroke="none" x="0" y="0" width="450" height="19" fill-opacity="0"/></g></g><g><g><rect fill="rgb(0,0,0)" stroke="none" x="0" y="0" width="450" height="19" fill-opacity="0"/></g></g><g><g><rect fill="rgb(0,0,0)" stroke="none" x="167.1666717529297" y="0.75" width="116" height="17" fill-opacity="0"/></g></g><g><g><rect fill="rgb(0,0,0)" stroke="none" x="167.1666717529297" y="0.75" width="116" height="17" fill-opacity="0"/></g><text fill="rgb(0, 0, 0)" stroke="none" font-family="&quot;Arial&quot;" font-size="16px" font-style="normal" font-weight="normal" text-decoration="" line-height="18.5px" x="167.1666717529297" y="14.75">Layer</text><text fill="rgb(0, 0, 0)" stroke="none" font-family="&quot;Arial&quot;" font-size="16px" font-style="normal" font-weight="normal" text-decoration="" line-height="18.5px" x="211.64999389648438" y="14.75">2</text><text fill="rgb(0, 0, 0)" stroke="none" font-family="&quot;Arial&quot;" font-size="16px" font-style="normal" font-weight="normal" text-decoration="" line-height="18.5px" x="225" y="14.75">Payload</text></g><g><g/></g></g><g transform="translate(0,0) matrix(1,0,0,1,370,120)"><g><g transform="translate(0,0) scale(4.7,0.3)"><g><path fill="rgb(255,255,255)" stroke="none" stroke-dasharray="1.7976931348623157e+308" d="M 0 0 L 100 0 Q 100 0 100 0 L 100 100 Q 100 100 100 100 L 0 100 Q 0 100 0 100 L 0 0 Q 0 0 0 0 Z" fill-opacity="0.008"/><g transform="scale(0.2127659574468085,3.3333333333333335)"><path fill="none" stroke="none" stroke-dasharray="1.7976931348623157e+308" d="M 0 0 L 470 0 Q 470 0 470 0 L 470 30 Q 470 30 470 30 L 0 30 Q 0 30 0 30 L 0 0 Q 0 0 0 0 Z"/><path fill="none" stroke="#333333" stroke-dasharray="1.7976931348623157e+308" d="M 0 0 L 470 0 Q 470 0 470 0 L 470 30 Q 470 30 470 30 L 0 30 Q 0 30 0 30 L 0 0 Q 0 0 0 0 Z" stroke-miterlimit="10" stroke-width="2"/></g></g></g></g></g><g transform="translate(0,0) matrix(1,0,0,1,30,30)"><g><g transform="translate(0,0) scale(0.35,0.3)"><g><path fill="#c9daf8" stroke="none" stroke-dasharray="1.7976931348623157e+308" d="M 0 0 L 100 0 Q 100 0 100 0 L 100 100 Q 100 100 100 100 L 0 100 Q 0 100 0 100 L 0 0 Q 0 0 0 0 Z"/><g transform="scale(2.857142857142857,3.3333333333333335)"><path fill="none" stroke="none" stroke-dasharray="1.7976931348623157e+308" d="M 0 0 L 35 0 Q 35 0 35 0 L 35 30 Q 35 30 35 30 L 0 30 Q 0 30 0 30 L 0 0 Q 0 0 0 0 Z"/><path fill="none" stroke="#333333" stroke-dasharray="1.7976931348623157e+308" d="M 0 0 L 35 0 Q 35 0 35 0 L 35 30 Q 35 30 35 30 L 0 30 Q 0 30 0 30 L 0 0 Q 0 0 0 0 Z" stroke-miterlimit="10" stroke-width="2"/></g></g></g></g></g><g transform="matrix(1,0,0,1,39,36)"><g><g><rect fill="rgb(0,0,0)" stroke="none" x="0" y="0" width="18" height="19" fill-opacity="0"/></g></g><g><g><rect fill="rgb(0,0,0)" stroke="none" x="0" y="0" width="18" height="19" fill-opacity="0"/></g></g><g><g><rect fill="rgb(0,0,0)" stroke="none" x="0.7833404541015625" y="0.75" width="16" height="17" fill-opacity="0"/></g></g><g><g><rect fill="rgb(0,0,0)" stroke="none" x="0.7833404541015625" y="0.75" width="16" height="17" fill-opacity="0"/></g></g><g><g><rect fill="rgb(0,0,0)" stroke="none" x="0.7833404541015625" y="0.75" width="16" height="17" fill-opacity="0"/></g><text fill="rgb(0, 0, 0)" stroke="none" font-family="&quot;Arial&quot;" font-size="16px" font-style="normal" font-weight="normal" text-decoration="" line-height="18.5px" x="0.7833404541015625" y="14.75">ID</text></g><g><g/></g></g><g transform="translate(0,0) matrix(1,0,0,1,65,30)"><g><g transform="translate(0,0) scale(1.2500000000000002,0.3)"><g><path fill="#b6d7a8" stroke="none" stroke-dasharray="1.7976931348623157e+308" d="M 0 0 L 100 0 Q 100 0 100 0 L 100 100 Q 100 100 100 100 L 0 100 Q 0 100 0 100 L 0 0 Q 0 0 0 0 Z"/><g transform="scale(0.7999999999999998,3.3333333333333335)"><path fill="none" stroke="none" stroke-dasharray="1.7976931348623157e+308" d="M 0 0 L 125.00000000000003 0 Q 125.00000000000003 0 125.00000000000003 0 L 125.00000000000003 30 Q 125.00000000000003 30 125.00000000000003 30 L 0 30 Q 0 30 0 30 L 0 0 Q 0 0 0 0 Z"/><path fill="none" stroke="#333333" stroke-dasharray="1.7976931348623157e+308" d="M 0 0 L 125.00000000000003 0 Q 125.00000000000003 0 125.00000000000003 0 L 125.00000000000003 30 Q 125.00000000000003 30 125.00000000000003 30 L 0 30 Q 0 30 0 30 L 0 0 Q 0 0 0 0 Z" stroke-miterlimit="10" stroke-width="2"/></g></g></g></g></g><g transform="translate(0,0) matrix(1,0,0,1,330,120)"><g><g transform="translate(0,0) scale(0.4,0.3)"><g><path fill="#c9daf8" stroke="none" stroke-dasharray="1.7976931348623157e+308" d="M 0 0 L 100 0 Q 100 0 100 0 L 100 100 Q 100 100 100 100 L 0 100 Q 0 100 0 100 L 0 0 Q 0 0 0 0 Z"/><g transform="scale(2.5,3.3333333333333335)"><path fill="none" stroke="none" stroke-dasharray="1.7976931348623157e+308" d="M 0 0 L 40 0 Q 40 0 40 0 L 40 30 Q 40 30 40 30 L 0 30 Q 0 30 0 30 L 0 0 Q 0 0 0 0 Z"/><path fill="none" stroke="#333333" stroke-dasharray="1.7976931348623157e+308" d="M 0 0 L 40 0 Q 40 0 40 0 L 40 30 Q 40 30 40 30 L 0 30 Q 0 30 0 30 L 0 0 Q 0 0 0 0 Z" stroke-miterlimit="10" stroke-width="2"/></g></g></g></g></g><g transform="translate(0,0) matrix(1,0,0,1,295,120)"><g><g transform="translate(0,0) scale(0.35,0.3)"><g><path fill="#fff2cc" stroke="none" stroke-dasharray="1.7976931348623157e+308" d="M 0 0 L 100 0 Q 100 0 100 0 L 100 100 Q 100 100 100 100 L 0 100 Q 0 100 0 100 L 0 0 Q 0 0 0 0 Z"/><g transform="scale(2.857142857142857,3.3333333333333335)"><path fill="none" stroke="none" stroke-dasharray="1.7976931348623157e+308" d="M 0 0 L 35 0 Q 35 0 35 0 L 35 30 Q 35 30 35 30 L 0 30 Q 0 30 0 30 L 0 0 Q 0 0 0 0 Z"/><path fill="none" stroke="#333333" stroke-dasharray="1.7976931348623157e+308" d="M 0 0 L 35 0 Q 35 0 35 0 L 35 30 Q 35 30 35 30 L 0 30 Q 0 30 0 30 L 0 0 Q 0 0 0 0 Z" stroke-miterlimit="10" stroke-width="2"/></g></g></g></g></g><g transform="matrix(1,0,0,1,304,126)"><g><g><rect fill="rgb(0,0,0)" stroke="none" x="0" y="0" width="18" height="19" fill-opacity="0"/></g></g><g><g><rect fill="rgb(0,0,0)" stroke="none" x="0" y="0" width="18" height="19" fill-opacity="0"/></g></g><g><g><rect fill="rgb(0,0,0)" stroke="none" x="0.7833404541015625" y="0.75" width="16" height="17" fill-opacity="0"/></g></g><g><g><rect fill="rgb(0,0,0)" stroke="none" x="0.7833404541015625" y="0.75" width="16" height="17" fill-opacity="0"/></g><text fill="rgb(0, 0, 0)" stroke="none" font-family="&quot;Arial&quot;" font-size="16px" font-style="normal" font-weight="normal" text-decoration="" line-height="18.5px" x="0.7833404541015625" y="14.75">ID</text></g><g><g/></g></g></g></svg>